<mxfile host="app.diagrams.net" modified="2024-06-06T01:36:20.295Z" agent="Mozilla/5.0 (Windows NT 10.0; Win64; x64) AppleWebKit/537.36 (KHTML, like Gecko) Chrome/125.0.0.0 Safari/537.36 Edg/125.0.0.0" etag="Mhx-8k36mkicwQHTxcyl" version="24.4.14" type="google">
  <diagram id="C5RBs43oDa-KdzZeNtuy" name="Page-1">
    <mxGraphModel grid="1" page="1" gridSize="10" guides="1" tooltips="1" connect="1" arrows="1" fold="1" pageScale="1" pageWidth="827" pageHeight="1169" math="0" shadow="0">
      <root>
        <mxCell id="WIyWlLk6GJQsqaUBKTNV-0" />
        <mxCell id="WIyWlLk6GJQsqaUBKTNV-1" parent="WIyWlLk6GJQsqaUBKTNV-0" />
        <mxCell id="d7qDGpnIMOgrF_xkMMI0-4" value="Cart&lt;div&gt;&lt;br&gt;&lt;/div&gt;" style="swimlane;fontStyle=1;align=center;verticalAlign=top;childLayout=stackLayout;horizontal=1;startSize=26;horizontalStack=0;resizeParent=1;resizeParentMax=0;resizeLast=0;collapsible=1;marginBottom=0;whiteSpace=wrap;html=1;" vertex="1" parent="WIyWlLk6GJQsqaUBKTNV-1">
          <mxGeometry x="430" y="30" width="370" height="130" as="geometry" />
        </mxCell>
        <mxCell id="d7qDGpnIMOgrF_xkMMI0-5" value="- items: List&amp;lt;Product&amp;gt;" style="text;strokeColor=none;fillColor=none;align=left;verticalAlign=top;spacingLeft=4;spacingRight=4;overflow=hidden;rotatable=0;points=[[0,0.5],[1,0.5]];portConstraint=eastwest;whiteSpace=wrap;html=1;" vertex="1" parent="d7qDGpnIMOgrF_xkMMI0-4">
          <mxGeometry y="26" width="370" height="24" as="geometry" />
        </mxCell>
        <mxCell id="d7qDGpnIMOgrF_xkMMI0-6" value="" style="line;strokeWidth=1;fillColor=none;align=left;verticalAlign=middle;spacingTop=-1;spacingLeft=3;spacingRight=3;rotatable=0;labelPosition=right;points=[];portConstraint=eastwest;strokeColor=inherit;" vertex="1" parent="d7qDGpnIMOgrF_xkMMI0-4">
          <mxGeometry y="50" width="370" height="8" as="geometry" />
        </mxCell>
        <mxCell id="d7qDGpnIMOgrF_xkMMI0-7" value="+ addProduct(productManager: ProductManager, product: Product)&lt;div&gt;+ removeProduct(product: Product)&lt;/div&gt;&lt;div&gt;+ totalPrice()&lt;/div&gt;&lt;div&gt;+ checkout()&lt;/div&gt;" style="text;strokeColor=none;fillColor=none;align=left;verticalAlign=top;spacingLeft=4;spacingRight=4;overflow=hidden;rotatable=0;points=[[0,0.5],[1,0.5]];portConstraint=eastwest;whiteSpace=wrap;html=1;" vertex="1" parent="d7qDGpnIMOgrF_xkMMI0-4">
          <mxGeometry y="58" width="370" height="72" as="geometry" />
        </mxCell>
        <mxCell id="d7qDGpnIMOgrF_xkMMI0-34" value="Client" style="swimlane;fontStyle=1;align=center;verticalAlign=top;childLayout=stackLayout;horizontal=1;startSize=26;horizontalStack=0;resizeParent=1;resizeParentMax=0;resizeLast=0;collapsible=1;marginBottom=0;whiteSpace=wrap;html=1;" vertex="1" parent="WIyWlLk6GJQsqaUBKTNV-1">
          <mxGeometry x="50" y="240" width="320" height="150" as="geometry" />
        </mxCell>
        <mxCell id="d7qDGpnIMOgrF_xkMMI0-35" value="&lt;div&gt;- id: Integer&lt;/div&gt;- name: String&lt;div&gt;- email: String&lt;/div&gt;&lt;div&gt;- password: String&lt;/div&gt;&lt;div&gt;&lt;span style=&quot;background-color: initial;&quot;&gt;- phoneNumber: String&lt;/span&gt;&lt;br&gt;&lt;/div&gt;" style="text;strokeColor=none;fillColor=none;align=left;verticalAlign=top;spacingLeft=4;spacingRight=4;overflow=hidden;rotatable=0;points=[[0,0.5],[1,0.5]];portConstraint=eastwest;whiteSpace=wrap;html=1;" vertex="1" parent="d7qDGpnIMOgrF_xkMMI0-34">
          <mxGeometry y="26" width="320" height="84" as="geometry" />
        </mxCell>
        <mxCell id="d7qDGpnIMOgrF_xkMMI0-36" value="" style="line;strokeWidth=1;fillColor=none;align=left;verticalAlign=middle;spacingTop=-1;spacingLeft=3;spacingRight=3;rotatable=0;labelPosition=right;points=[];portConstraint=eastwest;strokeColor=inherit;" vertex="1" parent="d7qDGpnIMOgrF_xkMMI0-34">
          <mxGeometry y="110" width="320" height="8" as="geometry" />
        </mxCell>
        <mxCell id="d7qDGpnIMOgrF_xkMMI0-37" value="&lt;div&gt;-&amp;nbsp; method()&lt;/div&gt;" style="text;strokeColor=none;fillColor=none;align=left;verticalAlign=top;spacingLeft=4;spacingRight=4;overflow=hidden;rotatable=0;points=[[0,0.5],[1,0.5]];portConstraint=eastwest;whiteSpace=wrap;html=1;" vertex="1" parent="d7qDGpnIMOgrF_xkMMI0-34">
          <mxGeometry y="118" width="320" height="32" as="geometry" />
        </mxCell>
        <mxCell id="d7qDGpnIMOgrF_xkMMI0-42" value="Address" style="swimlane;fontStyle=1;align=center;verticalAlign=top;childLayout=stackLayout;horizontal=1;startSize=26;horizontalStack=0;resizeParent=1;resizeParentMax=0;resizeLast=0;collapsible=1;marginBottom=0;whiteSpace=wrap;html=1;" vertex="1" parent="WIyWlLk6GJQsqaUBKTNV-1">
          <mxGeometry x="40" y="10" width="160" height="140" as="geometry" />
        </mxCell>
        <mxCell id="d7qDGpnIMOgrF_xkMMI0-43" value="- contry: String&lt;div&gt;- state: String&lt;/div&gt;&lt;div&gt;- city: String&lt;/div&gt;&lt;div&gt;- street: String&lt;/div&gt;&lt;div&gt;- zipCode: String&lt;/div&gt;&lt;div&gt;- complement: String&lt;/div&gt;&lt;div&gt;-&amp;nbsp;referencePoint: String&lt;/div&gt;" style="text;strokeColor=none;fillColor=none;align=left;verticalAlign=top;spacingLeft=4;spacingRight=4;overflow=hidden;rotatable=0;points=[[0,0.5],[1,0.5]];portConstraint=eastwest;whiteSpace=wrap;html=1;" vertex="1" parent="d7qDGpnIMOgrF_xkMMI0-42">
          <mxGeometry y="26" width="160" height="114" as="geometry" />
        </mxCell>
        <mxCell id="d7qDGpnIMOgrF_xkMMI0-46" value="Product" style="swimlane;fontStyle=1;align=center;verticalAlign=top;childLayout=stackLayout;horizontal=1;startSize=26;horizontalStack=0;resizeParent=1;resizeParentMax=0;resizeLast=0;collapsible=1;marginBottom=0;whiteSpace=wrap;html=1;" vertex="1" parent="WIyWlLk6GJQsqaUBKTNV-1">
          <mxGeometry x="535" y="340" width="160" height="130" as="geometry" />
        </mxCell>
        <mxCell id="d7qDGpnIMOgrF_xkMMI0-47" value="&lt;p style=&quot;margin: 0px 0px 0px 4px;&quot;&gt;- name: String&lt;/p&gt;&lt;p style=&quot;margin: 0px 0px 0px 4px;&quot;&gt;- price: Double&lt;br&gt;- stock: Integer&lt;/p&gt;" style="text;strokeColor=none;fillColor=none;align=left;verticalAlign=top;spacingLeft=4;spacingRight=4;overflow=hidden;rotatable=0;points=[[0,0.5],[1,0.5]];portConstraint=eastwest;whiteSpace=wrap;html=1;" vertex="1" parent="d7qDGpnIMOgrF_xkMMI0-46">
          <mxGeometry y="26" width="160" height="54" as="geometry" />
        </mxCell>
        <mxCell id="d7qDGpnIMOgrF_xkMMI0-48" value="" style="line;strokeWidth=1;fillColor=none;align=left;verticalAlign=middle;spacingTop=-1;spacingLeft=3;spacingRight=3;rotatable=0;labelPosition=right;points=[];portConstraint=eastwest;strokeColor=inherit;" vertex="1" parent="d7qDGpnIMOgrF_xkMMI0-46">
          <mxGeometry y="80" width="160" height="8" as="geometry" />
        </mxCell>
        <mxCell id="d7qDGpnIMOgrF_xkMMI0-49" value="+ increaseStock()&lt;div&gt;+ decreaseStock()&lt;/div&gt;" style="text;strokeColor=none;fillColor=none;align=left;verticalAlign=top;spacingLeft=4;spacingRight=4;overflow=hidden;rotatable=0;points=[[0,0.5],[1,0.5]];portConstraint=eastwest;whiteSpace=wrap;html=1;" vertex="1" parent="d7qDGpnIMOgrF_xkMMI0-46">
          <mxGeometry y="88" width="160" height="42" as="geometry" />
        </mxCell>
        <mxCell id="d7qDGpnIMOgrF_xkMMI0-54" value="contains" style="endArrow=open;html=1;endSize=12;startArrow=diamondThin;startSize=14;startFill=0;edgeStyle=orthogonalEdgeStyle;rounded=0;spacingBottom=0;" edge="1" parent="WIyWlLk6GJQsqaUBKTNV-1" source="d7qDGpnIMOgrF_xkMMI0-46" target="d7qDGpnIMOgrF_xkMMI0-4">
          <mxGeometry relative="1" as="geometry">
            <mxPoint x="230" y="260" as="sourcePoint" />
            <mxPoint x="390" y="260" as="targetPoint" />
          </mxGeometry>
        </mxCell>
        <mxCell id="d7qDGpnIMOgrF_xkMMI0-55" value="0..n" style="edgeLabel;resizable=0;html=1;align=left;verticalAlign=top;" connectable="0" vertex="1" parent="d7qDGpnIMOgrF_xkMMI0-54">
          <mxGeometry x="-1" relative="1" as="geometry">
            <mxPoint x="5" y="-30" as="offset" />
          </mxGeometry>
        </mxCell>
        <mxCell id="d7qDGpnIMOgrF_xkMMI0-56" value="1" style="edgeLabel;resizable=0;html=1;align=right;verticalAlign=top;" connectable="0" vertex="1" parent="d7qDGpnIMOgrF_xkMMI0-54">
          <mxGeometry x="1" relative="1" as="geometry">
            <mxPoint x="-5" y="10" as="offset" />
          </mxGeometry>
        </mxCell>
        <mxCell id="d7qDGpnIMOgrF_xkMMI0-57" value="Cpf" style="swimlane;fontStyle=1;align=center;verticalAlign=top;childLayout=stackLayout;horizontal=1;startSize=26;horizontalStack=0;resizeParent=1;resizeParentMax=0;resizeLast=0;collapsible=1;marginBottom=0;whiteSpace=wrap;html=1;" vertex="1" parent="WIyWlLk6GJQsqaUBKTNV-1">
          <mxGeometry x="360" y="700" width="160" height="100" as="geometry" />
        </mxCell>
        <mxCell id="d7qDGpnIMOgrF_xkMMI0-58" value="&lt;div&gt;- formattedCpf: String&lt;/div&gt;" style="text;strokeColor=none;fillColor=none;align=left;verticalAlign=top;spacingLeft=4;spacingRight=4;overflow=hidden;rotatable=0;points=[[0,0.5],[1,0.5]];portConstraint=eastwest;whiteSpace=wrap;html=1;" vertex="1" parent="d7qDGpnIMOgrF_xkMMI0-57">
          <mxGeometry y="26" width="160" height="24" as="geometry" />
        </mxCell>
        <mxCell id="d7qDGpnIMOgrF_xkMMI0-59" value="" style="line;strokeWidth=1;fillColor=none;align=left;verticalAlign=middle;spacingTop=-1;spacingLeft=3;spacingRight=3;rotatable=0;labelPosition=right;points=[];portConstraint=eastwest;strokeColor=inherit;" vertex="1" parent="d7qDGpnIMOgrF_xkMMI0-57">
          <mxGeometry y="50" width="160" height="8" as="geometry" />
        </mxCell>
        <mxCell id="d7qDGpnIMOgrF_xkMMI0-60" value="+ validate()&lt;div&gt;&lt;div&gt;&lt;div&gt;- discoverDigit()&lt;/div&gt;&lt;/div&gt;&lt;/div&gt;" style="text;strokeColor=none;fillColor=none;align=left;verticalAlign=top;spacingLeft=4;spacingRight=4;overflow=hidden;rotatable=0;points=[[0,0.5],[1,0.5]];portConstraint=eastwest;whiteSpace=wrap;html=1;" vertex="1" parent="d7qDGpnIMOgrF_xkMMI0-57">
          <mxGeometry y="58" width="160" height="42" as="geometry" />
        </mxCell>
        <mxCell id="JVA4nKGhvhMZOatLmzcH-0" value="Product Manager" style="swimlane;fontStyle=1;align=center;verticalAlign=top;childLayout=stackLayout;horizontal=1;startSize=26;horizontalStack=0;resizeParent=1;resizeParentMax=0;resizeLast=0;collapsible=1;marginBottom=0;whiteSpace=wrap;html=1;" vertex="1" parent="WIyWlLk6GJQsqaUBKTNV-1">
          <mxGeometry x="570" y="585" width="210" height="100" as="geometry" />
        </mxCell>
        <mxCell id="JVA4nKGhvhMZOatLmzcH-1" value="- products: List&amp;lt;Product&amp;gt;" style="text;strokeColor=none;fillColor=none;align=left;verticalAlign=top;spacingLeft=4;spacingRight=4;overflow=hidden;rotatable=0;points=[[0,0.5],[1,0.5]];portConstraint=eastwest;whiteSpace=wrap;html=1;" vertex="1" parent="JVA4nKGhvhMZOatLmzcH-0">
          <mxGeometry y="26" width="210" height="26" as="geometry" />
        </mxCell>
        <mxCell id="JVA4nKGhvhMZOatLmzcH-2" value="" style="line;strokeWidth=1;fillColor=none;align=left;verticalAlign=middle;spacingTop=-1;spacingLeft=3;spacingRight=3;rotatable=0;labelPosition=right;points=[];portConstraint=eastwest;strokeColor=inherit;" vertex="1" parent="JVA4nKGhvhMZOatLmzcH-0">
          <mxGeometry y="52" width="210" height="8" as="geometry" />
        </mxCell>
        <mxCell id="JVA4nKGhvhMZOatLmzcH-3" value="+ addProduct(product: Product)&lt;div&gt;+ removeProduct(product: Product)&lt;/div&gt;" style="text;strokeColor=none;fillColor=none;align=left;verticalAlign=top;spacingLeft=4;spacingRight=4;overflow=hidden;rotatable=0;points=[[0,0.5],[1,0.5]];portConstraint=eastwest;whiteSpace=wrap;html=1;" vertex="1" parent="JVA4nKGhvhMZOatLmzcH-0">
          <mxGeometry y="60" width="210" height="40" as="geometry" />
        </mxCell>
        <mxCell id="JVA4nKGhvhMZOatLmzcH-4" value="can buy for" style="endArrow=open;html=1;endSize=12;startArrow=diamondThin;startSize=14;startFill=0;edgeStyle=orthogonalEdgeStyle;rounded=0;" edge="1" parent="WIyWlLk6GJQsqaUBKTNV-1" source="d7qDGpnIMOgrF_xkMMI0-42" target="d7qDGpnIMOgrF_xkMMI0-34">
          <mxGeometry relative="1" as="geometry">
            <mxPoint x="340" y="410" as="sourcePoint" />
            <mxPoint x="500" y="410" as="targetPoint" />
          </mxGeometry>
        </mxCell>
        <mxCell id="JVA4nKGhvhMZOatLmzcH-5" value="0..n" style="edgeLabel;resizable=0;html=1;align=left;verticalAlign=top;" connectable="0" vertex="1" parent="JVA4nKGhvhMZOatLmzcH-4">
          <mxGeometry x="-1" relative="1" as="geometry">
            <mxPoint y="10" as="offset" />
          </mxGeometry>
        </mxCell>
        <mxCell id="JVA4nKGhvhMZOatLmzcH-6" value="1" style="edgeLabel;resizable=0;html=1;align=right;verticalAlign=top;" connectable="0" vertex="1" parent="JVA4nKGhvhMZOatLmzcH-4">
          <mxGeometry x="1" relative="1" as="geometry">
            <mxPoint x="10" y="-40" as="offset" />
          </mxGeometry>
        </mxCell>
        <mxCell id="JVA4nKGhvhMZOatLmzcH-7" value="contains" style="endArrow=open;html=1;endSize=12;startArrow=diamondThin;startSize=14;startFill=0;edgeStyle=orthogonalEdgeStyle;rounded=0;" edge="1" parent="WIyWlLk6GJQsqaUBKTNV-1" source="d7qDGpnIMOgrF_xkMMI0-46" target="JVA4nKGhvhMZOatLmzcH-0">
          <mxGeometry relative="1" as="geometry">
            <mxPoint x="370" y="390" as="sourcePoint" />
            <mxPoint x="530" y="390" as="targetPoint" />
          </mxGeometry>
        </mxCell>
        <mxCell id="JVA4nKGhvhMZOatLmzcH-8" value="0..n" style="edgeLabel;resizable=0;html=1;align=left;verticalAlign=top;" connectable="0" vertex="1" parent="JVA4nKGhvhMZOatLmzcH-7">
          <mxGeometry x="-1" relative="1" as="geometry">
            <mxPoint y="15" as="offset" />
          </mxGeometry>
        </mxCell>
        <mxCell id="JVA4nKGhvhMZOatLmzcH-9" value="1" style="edgeLabel;resizable=0;html=1;align=right;verticalAlign=top;" connectable="0" vertex="1" parent="JVA4nKGhvhMZOatLmzcH-7">
          <mxGeometry x="1" relative="1" as="geometry">
            <mxPoint y="-40" as="offset" />
          </mxGeometry>
        </mxCell>
        <mxCell id="n4aeTTVlG1OL7bkU_y6K-3" value="" style="endArrow=open;endFill=1;endSize=12;html=1;rounded=0;" edge="1" parent="WIyWlLk6GJQsqaUBKTNV-1" source="n4aeTTVlG1OL7bkU_y6K-15" target="d7qDGpnIMOgrF_xkMMI0-57">
          <mxGeometry width="160" relative="1" as="geometry">
            <mxPoint x="170" y="420" as="sourcePoint" />
            <mxPoint x="330" y="420" as="targetPoint" />
          </mxGeometry>
        </mxCell>
        <mxCell id="n4aeTTVlG1OL7bkU_y6K-5" value="" style="endArrow=diamondThin;endFill=1;endSize=24;html=1;rounded=0;" edge="1" parent="WIyWlLk6GJQsqaUBKTNV-1" source="d7qDGpnIMOgrF_xkMMI0-4" target="d7qDGpnIMOgrF_xkMMI0-34">
          <mxGeometry width="160" relative="1" as="geometry">
            <mxPoint x="250" y="330" as="sourcePoint" />
            <mxPoint x="410" y="330" as="targetPoint" />
          </mxGeometry>
        </mxCell>
        <mxCell id="n4aeTTVlG1OL7bkU_y6K-10" value="Admin" style="swimlane;fontStyle=1;align=center;verticalAlign=top;childLayout=stackLayout;horizontal=1;startSize=26;horizontalStack=0;resizeParent=1;resizeParentMax=0;resizeLast=0;collapsible=1;marginBottom=0;whiteSpace=wrap;html=1;" vertex="1" parent="WIyWlLk6GJQsqaUBKTNV-1">
          <mxGeometry x="360" y="510" width="160" height="84" as="geometry" />
        </mxCell>
        <mxCell id="n4aeTTVlG1OL7bkU_y6K-11" value="- field: Type" style="text;strokeColor=none;fillColor=none;align=left;verticalAlign=top;spacingLeft=4;spacingRight=4;overflow=hidden;rotatable=0;points=[[0,0.5],[1,0.5]];portConstraint=eastwest;whiteSpace=wrap;html=1;" vertex="1" parent="n4aeTTVlG1OL7bkU_y6K-10">
          <mxGeometry y="26" width="160" height="24" as="geometry" />
        </mxCell>
        <mxCell id="n4aeTTVlG1OL7bkU_y6K-12" value="" style="line;strokeWidth=1;fillColor=none;align=left;verticalAlign=middle;spacingTop=-1;spacingLeft=3;spacingRight=3;rotatable=0;labelPosition=right;points=[];portConstraint=eastwest;strokeColor=inherit;" vertex="1" parent="n4aeTTVlG1OL7bkU_y6K-10">
          <mxGeometry y="50" width="160" height="8" as="geometry" />
        </mxCell>
        <mxCell id="n4aeTTVlG1OL7bkU_y6K-13" value="+ method(type): type" style="text;strokeColor=none;fillColor=none;align=left;verticalAlign=top;spacingLeft=4;spacingRight=4;overflow=hidden;rotatable=0;points=[[0,0.5],[1,0.5]];portConstraint=eastwest;whiteSpace=wrap;html=1;" vertex="1" parent="n4aeTTVlG1OL7bkU_y6K-10">
          <mxGeometry y="58" width="160" height="26" as="geometry" />
        </mxCell>
        <mxCell id="n4aeTTVlG1OL7bkU_y6K-15" value="User" style="swimlane;fontStyle=1;align=center;verticalAlign=top;childLayout=stackLayout;horizontal=1;startSize=26;horizontalStack=0;resizeParent=1;resizeParentMax=0;resizeLast=0;collapsible=1;marginBottom=0;whiteSpace=wrap;html=1;" vertex="1" parent="WIyWlLk6GJQsqaUBKTNV-1">
          <mxGeometry x="130" y="490" width="160" height="124" as="geometry" />
        </mxCell>
        <mxCell id="n4aeTTVlG1OL7bkU_y6K-16" value="- id: Integer&lt;div&gt;- name: String&lt;/div&gt;&lt;div&gt;- email: String&lt;/div&gt;&lt;div&gt;- password: String&lt;/div&gt;" style="text;strokeColor=none;fillColor=none;align=left;verticalAlign=top;spacingLeft=4;spacingRight=4;overflow=hidden;rotatable=0;points=[[0,0.5],[1,0.5]];portConstraint=eastwest;whiteSpace=wrap;html=1;" vertex="1" parent="n4aeTTVlG1OL7bkU_y6K-15">
          <mxGeometry y="26" width="160" height="64" as="geometry" />
        </mxCell>
        <mxCell id="n4aeTTVlG1OL7bkU_y6K-17" value="" style="line;strokeWidth=1;fillColor=none;align=left;verticalAlign=middle;spacingTop=-1;spacingLeft=3;spacingRight=3;rotatable=0;labelPosition=right;points=[];portConstraint=eastwest;strokeColor=inherit;" vertex="1" parent="n4aeTTVlG1OL7bkU_y6K-15">
          <mxGeometry y="90" width="160" height="8" as="geometry" />
        </mxCell>
        <mxCell id="n4aeTTVlG1OL7bkU_y6K-18" value="+ method(type): type" style="text;strokeColor=none;fillColor=none;align=left;verticalAlign=top;spacingLeft=4;spacingRight=4;overflow=hidden;rotatable=0;points=[[0,0.5],[1,0.5]];portConstraint=eastwest;whiteSpace=wrap;html=1;" vertex="1" parent="n4aeTTVlG1OL7bkU_y6K-15">
          <mxGeometry y="98" width="160" height="26" as="geometry" />
        </mxCell>
        <mxCell id="n4aeTTVlG1OL7bkU_y6K-19" value="Extends" style="endArrow=block;endSize=16;endFill=0;html=1;rounded=0;" edge="1" parent="WIyWlLk6GJQsqaUBKTNV-1" source="n4aeTTVlG1OL7bkU_y6K-10" target="n4aeTTVlG1OL7bkU_y6K-15">
          <mxGeometry width="160" relative="1" as="geometry">
            <mxPoint x="280" y="490" as="sourcePoint" />
            <mxPoint x="470" y="440" as="targetPoint" />
          </mxGeometry>
        </mxCell>
        <mxCell id="n4aeTTVlG1OL7bkU_y6K-20" value="Extends" style="endArrow=block;endSize=16;endFill=0;html=1;rounded=0;" edge="1" parent="WIyWlLk6GJQsqaUBKTNV-1" source="d7qDGpnIMOgrF_xkMMI0-34" target="n4aeTTVlG1OL7bkU_y6K-15">
          <mxGeometry width="160" relative="1" as="geometry">
            <mxPoint x="310" y="440" as="sourcePoint" />
            <mxPoint x="470" y="440" as="targetPoint" />
          </mxGeometry>
        </mxCell>
      </root>
    </mxGraphModel>
  </diagram>
</mxfile>
